<svg width="66" height="35" viewBox="0 0 66 35" fill="none" xmlns="http://www.w3.org/2000/svg">
<path d="M18.7387 13.8086H60.4981C61.9573 13.8086 63.3567 14.1773 64.3885 14.8337C65.4203 15.4901 66 16.3803 66 17.3086C66 18.2368 65.4203 19.1271 64.3885 19.7834C63.3567 20.4398 61.9573 20.8086 60.4981 20.8086H18.7387L31.3931 28.8586C31.9652 29.175 32.4284 29.5632 32.7536 29.9989C33.0787 30.4345 33.2588 30.9082 33.2826 31.3903C33.3064 31.8723 33.1733 32.3523 32.8917 32.8001C32.6101 33.2478 32.186 33.6538 31.6461 33.9924C31.1063 34.331 30.4622 34.5949 29.7544 34.7677C29.0466 34.9405 28.2903 35.0183 27.533 34.9964C26.7756 34.9744 26.0336 34.8531 25.3534 34.6401C24.6732 34.4271 24.0696 34.127 23.5804 33.7586L1.57276 19.7586C0.564661 19.1043 0 18.2247 0 17.3086C0 16.3924 0.564661 15.5128 1.57276 14.8586L23.5804 0.85856C24.6264 0.280088 25.9771 -0.0259172 27.3625 0.00172154C28.7478 0.0293603 30.0657 0.388606 31.0527 1.00764C32.0397 1.62667 32.6231 2.45988 32.6862 3.34068C32.7493 4.22149 32.2875 5.08499 31.3931 5.75856L18.6837 13.8086H18.7387Z" fill="#333333"/>
</svg>
