<svg width="901" height="787" viewBox="0 0 901 787" fill="none" xmlns="http://www.w3.org/2000/svg">
<g clip-path="url(#clip0)">
<path opacity="0.2" d="M815.63 283H763.63V310H815.63V283Z" fill="#4F86C6"/>
<path opacity="0.2" d="M819.63 316H767.63V343H819.63V316Z" fill="#4F86C6"/>
<path opacity="0.2" d="M776.63 87H724.63V114H776.63V87Z" fill="#4F86C6"/>
<path opacity="0.2" d="M813.63 118H761.63V145H813.63V118Z" fill="#4F86C6"/>
<path opacity="0.2" d="M713.63 89H661.63V116H713.63V89Z" fill="#4F86C6"/>
<path opacity="0.2" d="M880.63 149H828.63V176H880.63V149Z" fill="#4F86C6"/>
<path opacity="0.2" d="M817.63 151H765.63V178H817.63V151Z" fill="#4F86C6"/>
<path opacity="0.2" d="M750.63 120H698.63V147H750.63V120Z" fill="#4F86C6"/>
<path opacity="0.2" d="M877.63 357H825.63V384H877.63V357Z" fill="#4F86C6"/>
<path opacity="0.2" d="M814.63 359H762.63V386H814.63V359Z" fill="#4F86C6"/>
<path d="M130.75 276C130.75 276 204.04 349.29 162.67 458C121.3 566.71 233.58 747.64 233.58 747.64C233.58 747.64 232.38 747.46 230.15 747.07C79.63 720.5 4.84001 548.35 88.58 420.5C119.66 372.91 145.2 317.14 130.75 276Z" fill="#6FAA7C"/>
<path d="M130.75 276C130.75 276 172.12 365.84 130.75 439.12C89.38 512.4 123.66 718.12 233.59 747.64" stroke="#535461" stroke-width="2" stroke-miterlimit="10"/>
<path d="M0.210007 572.42C0.210007 572.42 83.84 559.1 91.46 634.05C99.08 709 252.28 719.39 252.28 719.39C252.28 719.39 251.28 720.07 249.41 721.3C122.92 804.3 2.01001 774.19 20.24 663.94C27.01 622.95 26.45 581.78 0.210007 572.42Z" fill="#6FAA7C"/>
<path opacity="0.2" d="M0.210007 572.42C0.210007 572.42 83.84 559.1 91.46 634.05C99.08 709 252.28 719.39 252.28 719.39C252.28 719.39 251.28 720.07 249.41 721.3C122.92 804.3 2.01001 774.19 20.24 663.94C27.01 622.95 26.45 581.78 0.210007 572.42Z" fill="#F5F5F5"/>
<path d="M0.210007 572.42C0.210007 572.42 65.12 586.67 59.79 645.69C54.46 704.71 156.19 775.5 252.28 719.39" stroke="#535461" stroke-width="2" stroke-miterlimit="10"/>
<path opacity="0.2" d="M52.63 284H0.629997V311H52.63V284Z" fill="#4F86C6"/>
<path opacity="0.2" d="M89.63 315H37.63V342H89.63V315Z" fill="#4F86C6"/>
<path opacity="0.2" d="M370.63 0H318.63V27H370.63V0Z" fill="#4F86C6"/>
<path opacity="0.2" d="M780.63 498H728.63V525H780.63V498Z" fill="#4F86C6"/>
<path opacity="0.2" d="M93.63 348H41.63V375H93.63V348Z" fill="#4F86C6"/>
<path opacity="0.2" d="M407.63 31H355.63V58H407.63V31Z" fill="#4F86C6"/>
<path opacity="0.2" d="M217.63 214H165.63V241H217.63V214Z" fill="#4F86C6"/>
<path opacity="0.2" d="M254.63 245H202.63V272H254.63V245Z" fill="#4F86C6"/>
<path opacity="0.2" d="M353.63 228H301.63V255H353.63V228Z" fill="#4F86C6"/>
<path opacity="0.2" d="M258.63 278H206.63V305H258.63V278Z" fill="#4F86C6"/>
<path opacity="0.2" d="M850.63 498H798.63V525H850.63V498Z" fill="#4F86C6"/>
<path d="M720.65 391.11C717.283 372.372 715.218 353.423 714.47 334.4C713.805 318.733 708.311 303.656 698.74 291.234C689.169 278.813 675.99 269.657 661.01 265.02C655.55 263.34 649.54 261.77 642.9 260.36C584.7 248 567.02 258.79 565.01 260.21C563.308 257.116 561.827 253.904 560.58 250.6C560.48 250.26 560.39 249.92 560.29 249.6C571.809 237.316 578.827 221.493 580.2 204.71C589.91 194.87 595.58 182.99 595.58 170.2C595.58 159.2 591.38 148.88 584.03 139.95V122.57C584.03 102.528 576.068 83.3061 561.896 69.1339C547.724 54.9618 528.502 47 508.46 47H502.33C492.406 47 482.579 48.9547 473.411 52.7524C464.242 56.5502 455.911 62.1166 448.894 69.1339C441.877 76.1513 436.31 84.482 432.512 93.6506C428.715 102.819 426.76 112.646 426.76 122.57V141.3C420.09 149.91 416.31 159.74 416.31 170.18C416.31 182.7 421.75 194.34 431.09 204.06C432.366 221.458 439.706 237.857 451.83 250.4C452.24 253.24 452.66 256.29 453.07 259.51L348.97 281.5C348.97 281.5 308.83 283.15 282.97 336.5C261.1 381.69 217.58 497.79 204.69 532.35C202.36 538.61 201.04 542.2 201.04 542.2C201.04 542.2 201.47 541.77 202.28 541.03L201.04 544.4C201.04 544.4 201.67 543.76 202.87 542.71C201.05 557.17 200.79 582 219.73 585.09C235.61 587.68 276.53 588.75 307.44 589.18H309.58C330.07 589.45 345.66 589.45 345.66 589.45V589.18H678.1V585.77C678.104 582.677 677.481 579.616 676.27 576.77L676.73 576.21C678.509 578.559 679.693 581.304 680.18 584.21C680.142 584.493 680.088 584.773 680.02 585.05L680.22 584.54C680.298 585.448 680.231 586.363 680.02 587.25C680.02 587.25 722.67 477.36 722.21 411.74C722.332 404.83 721.81 397.923 720.65 391.11V391.11ZM454.8 274.36C454.249 271.225 453.895 268.059 453.74 264.88C453.74 264.88 453.74 264.82 453.74 264.79C454.11 267.88 454.47 271.08 454.8 274.36ZM325.58 510.4V536.59L309.18 540.1L325.58 510.4Z" fill="url(#paint0_linear)"/>
<path d="M503.71 57.5698C523.752 57.5698 542.974 65.5316 557.146 79.7038C571.318 93.8759 579.28 113.097 579.28 133.14V165.38H428.14V133.14C428.14 113.097 436.102 93.8759 450.274 79.7038C464.446 65.5316 483.668 57.5698 503.71 57.5698V57.5698Z" fill="#3A5981"/>
<path d="M504.24 235.14C551.814 235.14 590.38 208.639 590.38 175.95C590.38 143.26 551.814 116.76 504.24 116.76C456.666 116.76 418.1 143.26 418.1 175.95C418.1 208.639 456.666 235.14 504.24 235.14Z" fill="#3A5981"/>
<path d="M449.02 233.29C449.02 233.29 467.02 327.36 449.02 352.73C431.02 378.1 504.02 388.14 504.02 388.14L579.58 360.66L590.15 293.01C590.15 293.01 544.15 267.11 553.68 214.79L449.02 233.29Z" fill="#CA9373"/>
<path d="M672.04 550.39C672.04 550.39 676.8 571 650.9 574.7C635.607 576.95 620.055 576.764 604.82 574.15L599.11 522.38H659.36L672.04 550.39Z" fill="#F7C4A7"/>
<path d="M214.7 524.01C214.7 524.01 203.26 570.5 229.16 574.7C255.06 578.9 350.16 578.93 350.16 578.93V523.93L307.1 533.13L266.68 494.37L214.7 524.01Z" fill="#CA9373"/>
<path opacity="0.1" d="M454.58 263.68L353.37 285.08C353.37 285.08 314.79 286.67 289.95 337.93C265.11 389.19 211.2 535.59 211.2 535.59C211.2 535.59 257.2 489.08 311.09 538.76L347.03 473.76L339.1 576.82H617.58V528.19C617.58 528.19 675.71 559.37 671.49 576.81C671.49 576.81 721.24 448.63 710.49 390.38C707.254 372.372 705.269 354.162 704.55 335.88V335.88C703.915 320.823 698.636 306.331 689.436 294.394C680.237 282.457 667.569 273.66 653.17 269.21C647.93 267.6 642.17 266.09 635.77 264.74C576.05 252.06 560.77 264.74 560.77 264.74C560.77 264.74 549.2 302.38 549.41 319.44C549.67 341.37 518.23 355.91 518.23 355.91C518.23 355.91 471.72 344.81 469.61 335.83C467.5 326.85 450.86 274.25 454.58 263.68Z" fill="black"/>
<path d="M454.58 261.57L353.37 282.97C353.37 282.97 314.79 284.56 289.95 335.82C265.11 387.08 211.19 533.5 211.19 533.5C211.19 533.5 257.19 486.99 311.08 536.67L347.02 471.67L339.09 574.7H617.58V526.08C617.58 526.08 675.71 557.26 671.49 574.7C671.49 574.7 721.24 446.52 710.49 388.27C707.254 370.262 705.269 352.052 704.55 333.77C703.915 318.713 698.636 304.221 689.436 292.284C680.237 280.347 667.569 271.55 653.17 267.1C647.93 265.49 642.17 263.98 635.77 262.63C576.05 249.95 560.77 262.63 560.77 262.63C560.77 262.63 549.2 300.27 549.41 317.33C549.67 339.26 518.23 353.8 518.23 353.8C518.23 353.8 471.72 342.7 469.61 333.72C467.5 324.74 450.86 272.14 454.58 261.57Z" fill="#CD97A0"/>
<path opacity="0.1" d="M558 257.08C553.749 245.044 552.796 232.089 555.24 219.56L450.58 238.05C450.58 238.05 452.09 245.96 453.8 257.81C460.562 264.827 468.681 270.395 477.663 274.176C486.645 277.957 496.302 279.872 506.047 279.803C515.792 279.735 525.421 277.685 534.349 273.779C543.277 269.873 551.317 264.191 557.98 257.08H558Z" fill="black"/>
<path d="M575.85 203.17C575.768 222.029 568.278 240.1 554.994 253.486C541.711 266.873 523.698 274.503 504.841 274.732C485.983 274.96 467.791 267.768 454.188 254.707C440.584 241.645 432.659 223.761 432.12 204.91C432.12 204.33 432.12 203.75 432.12 203.17C432.117 189.712 435.891 176.523 443.014 165.104C450.137 153.686 460.322 144.496 472.41 138.58C474.563 137.527 476.777 136.58 479.05 135.74C490.874 131.393 503.627 130.208 516.05 132.3V132.3C531.971 135.011 546.513 143.009 557.329 155.002C568.145 166.996 574.603 182.284 575.66 198.4C575.787 199.98 575.85 201.57 575.85 203.17Z" fill="#CA9373"/>
<g opacity="0.1">
<path opacity="0.1" d="M478.94 137.43L479.04 137.37C476.767 138.21 474.553 139.157 472.4 140.21C460.312 146.126 450.127 155.316 443.004 166.735C435.881 178.153 432.107 191.342 432.11 204.8C432.11 205.38 432.11 205.96 432.11 206.54C434.345 206.48 436.542 205.952 438.56 204.99C456.08 196.81 466.56 171.79 470.72 154.34C472.22 148.09 473.63 141.05 478.94 137.43Z" fill="black"/>
<path opacity="0.1" d="M533.95 139.44C528.261 136.827 522.253 134.974 516.08 133.93C521.142 135.095 525.663 137.935 528.91 141.99C530.501 144.154 531.821 146.505 532.84 148.99C523.275 144.808 512.915 142.754 502.478 142.969C492.04 143.185 481.774 145.666 472.39 150.24C476.9 160.13 490.89 165.52 500.23 169.13C510.457 173.077 520.79 176.687 531.23 179.96L521.99 172.46L542.86 175.78C543.085 171.627 542.591 167.466 541.4 163.48C545.4 166.7 550.7 167.78 555.04 170.48C563.17 175.61 566.56 185.48 570.99 194.03C572.16 196.29 573.54 198.6 575.65 200.03C574.797 187.112 570.472 174.665 563.133 164C555.793 153.336 545.711 144.851 533.95 139.44V139.44Z" fill="black"/>
</g>
<path d="M478.94 135.8L479.04 135.74C476.767 136.58 474.553 137.527 472.4 138.58C460.312 144.496 450.127 153.686 443.004 165.105C435.881 176.523 432.107 189.712 432.11 203.17C432.11 203.75 432.11 204.33 432.11 204.91C434.345 204.85 436.542 204.322 438.56 203.36C456.08 195.18 466.56 170.16 470.72 152.71C472.22 146.5 473.63 139.43 478.94 135.8Z" fill="#535461"/>
<path d="M533.95 137.82C528.261 135.207 522.253 133.354 516.08 132.31C521.142 133.475 525.663 136.315 528.91 140.37C530.501 142.534 531.821 144.885 532.84 147.37C523.275 143.188 512.915 141.133 502.478 141.349C492.04 141.565 481.774 144.046 472.39 148.62C476.9 158.51 490.89 163.9 500.23 167.51C510.457 171.457 520.79 175.067 531.23 178.34L521.99 170.84L542.86 174.16C543.085 170.007 542.591 165.846 541.4 161.86C545.4 165.08 550.7 166.16 555.04 168.86C563.17 173.99 566.56 183.86 570.99 192.41C572.16 194.67 573.54 196.98 575.65 198.41C574.797 185.492 570.472 173.044 563.133 162.38C555.793 151.716 545.711 143.231 533.95 137.82V137.82Z" fill="#535461"/>
<path opacity="0.1" d="M423.91 191.32C423.91 191.32 497.91 99.32 583.52 191.32L576.12 170.71C576.12 170.71 535.95 112.05 507.42 124.71C478.89 137.37 450.87 146.38 450.87 146.38L423.91 191.32Z" fill="black"/>
<path d="M423.91 189.69C423.91 189.69 497.91 97.6901 583.52 189.69L576.12 169.08C576.12 169.08 535.95 110.42 507.42 123.08C478.89 135.74 450.87 144.75 450.87 144.75L423.91 189.69Z" fill="#3A5981"/>
<path opacity="0.1" d="M363.13 387.88C363.13 387.88 347.28 430.16 369.47 468.21C391.66 506.26 349.92 522.12 349.92 522.12" fill="black"/>
<path opacity="0.1" d="M619.98 349.83C619.98 349.83 647.46 384.71 629.49 415.89C611.52 447.07 612.58 522.12 612.58 522.12" fill="black"/>
<path d="M338.82 553.3H644.29C651.019 553.3 657.472 555.973 662.229 560.731C666.987 565.489 669.66 571.942 669.66 578.67V578.67H313.46C313.46 571.943 316.132 565.492 320.887 560.734C325.643 555.977 332.093 553.303 338.82 553.3V553.3Z" fill="#535461"/>
<path d="M369.9 378.89H613.22C618.342 378.89 623.413 379.899 628.145 381.859C632.876 383.819 637.176 386.691 640.797 390.313C644.419 393.934 647.291 398.234 649.251 402.965C651.211 407.697 652.22 412.769 652.22 417.89V559.11H330.9V417.89C330.9 407.547 335.009 397.627 342.323 390.313C349.637 382.999 359.557 378.89 369.9 378.89V378.89Z" fill="#535461"/>
<path d="M491.29 495.96C501.8 495.96 510.32 487.44 510.32 476.93C510.32 466.42 501.8 457.9 491.29 457.9C480.78 457.9 472.26 466.42 472.26 476.93C472.26 487.44 480.78 495.96 491.29 495.96Z" fill="white"/>
<path opacity="0.1" d="M428.14 148.2C428.14 148.2 500.86 75.5199 579.29 146.87" stroke="black" stroke-miterlimit="10"/>
<path d="M597.66 143.57H590.36V184.96H597.66V143.57Z" fill="#666666"/>
<path d="M580.62 170.35C587.293 170.35 593.692 173.001 598.411 177.719C603.129 182.438 605.78 188.837 605.78 195.51V197.13C605.78 203.803 603.129 210.202 598.411 214.921C593.692 219.639 587.293 222.29 580.62 222.29V222.29V170.35Z" fill="#9EC6A7"/>
<path d="M587.11 173.6C587.11 170.463 584.567 167.92 581.43 167.92C578.293 167.92 575.75 170.463 575.75 173.6V219.05C575.75 222.187 578.293 224.73 581.43 224.73C584.567 224.73 587.11 222.187 587.11 219.05V173.6Z" fill="#A59F9F"/>
<path d="M409.02 185.77H416.32V144.38H409.02V185.77Z" fill="#666666"/>
<path d="M426.06 223.1C419.387 223.1 412.988 220.449 408.269 215.731C403.551 211.012 400.9 204.613 400.9 197.94V196.32C400.9 193.016 401.551 189.744 402.815 186.692C404.08 183.639 405.933 180.866 408.269 178.529C410.606 176.193 413.379 174.34 416.432 173.075C419.484 171.811 422.756 171.16 426.06 171.16V171.16V223.1Z" fill="#9EC6A7"/>
<path d="M419.57 219.85C419.57 222.987 422.113 225.53 425.25 225.53C428.387 225.53 430.93 222.987 430.93 219.85V174.4C430.93 171.263 428.387 168.72 425.25 168.72C422.113 168.72 419.57 171.263 419.57 174.4V219.85Z" fill="#A59F9F"/>
<path d="M589.5 99.3299C579.61 78.7699 558.07 53.9099 511.64 51.9199V51.8599H511.08L494.63 52.6399V52.7199C448.51 54.8399 427.07 79.6099 417.21 100.1C410.643 113.99 407.157 129.136 406.99 144.5L412.67 144.36L418.35 144.23C418.595 130.552 421.741 117.082 427.58 104.71C440.1 78.9899 463.14 65.3199 496.05 64.0499L510.6 63.2399C543.53 64.4999 566.58 78.1899 579.09 103.9C584.939 116.276 588.091 129.754 588.34 143.44L594.02 143.57L599.7 143.71C599.537 128.355 596.057 113.216 589.5 99.3299V99.3299Z" fill="#9EC6A7"/>
<path d="M848.99 579H74.28V787H848.99V579Z" fill="#D6D6E3"/>
<path opacity="0.1" d="M848.99 593H74.28V620H848.99V593Z" fill="black"/>
<path d="M900.94 576H22.31V603H900.94V576Z" fill="#D6D6E3"/>
</g>
<defs>
<linearGradient id="paint0_linear" x1="461.63" y1="589.5" x2="461.63" y2="47" gradientUnits="userSpaceOnUse">
<stop stop-color="#808080" stop-opacity="0.25"/>
<stop offset="0.54" stop-color="#808080" stop-opacity="0.12"/>
<stop offset="1" stop-color="#808080" stop-opacity="0.1"/>
</linearGradient>
<clipPath id="clip0">
<rect width="900.94" height="787" fill="white"/>
</clipPath>
</defs>
</svg>
