<svg width="14" height="16" viewBox="0 0 14 12" fill="none" xmlns="http://www.w3.org/2000/svg">
<path d="M7 4C7 4.13261 6.93854 4.25979 6.82915 4.35355C6.71975 4.44732 6.57138 4.5 6.41667 4.5H2.91667V9.5H8.75V6.5C8.75 6.36739 8.81146 6.24021 8.92085 6.14645C9.03025 6.05268 9.17862 6 9.33333 6C9.48804 6 9.63642 6.05268 9.74581 6.14645C9.85521 6.24021 9.91667 6.36739 9.91667 6.5V9.5C9.91667 9.76522 9.79375 10.0196 9.57496 10.2071C9.35616 10.3946 9.05942 10.5 8.75 10.5H2.91667C2.60725 10.5 2.3105 10.3946 2.09171 10.2071C1.87292 10.0196 1.75 9.76522 1.75 9.5V4.5C1.75 3.95 2.275 3.5 2.91667 3.5H6.41667C6.57138 3.5 6.71975 3.55268 6.82915 3.64645C6.93854 3.74021 7 3.86739 7 4Z" fill="#B4B4B4"/>
<path d="M11.0833 3.205L5.07497 8.355C5.02223 8.407 4.95753 8.44909 4.88492 8.47864C4.8123 8.50819 4.73335 8.52456 4.65301 8.52672C4.57267 8.52888 4.49268 8.51678 4.41805 8.49119C4.34342 8.4656 4.27576 8.42706 4.21933 8.378C4.1629 8.32894 4.1189 8.27041 4.09011 8.20609C4.06131 8.14176 4.04834 8.07303 4.052 8.0042C4.05566 7.93538 4.07587 7.86794 4.11137 7.80613C4.14687 7.74432 4.19689 7.68946 4.2583 7.645L10.255 2.5H8.16663C8.01192 2.5 7.86355 2.44732 7.75415 2.35355C7.64476 2.25979 7.5833 2.13261 7.5833 2C7.5833 1.86739 7.64476 1.74021 7.75415 1.64645C7.86355 1.55268 8.01192 1.5 8.16663 1.5H11.6666C11.8213 1.5 11.9697 1.55268 12.0791 1.64645C12.1885 1.74021 12.25 1.86739 12.25 2V5C12.25 5.13261 12.1885 5.25979 12.0791 5.35355C11.9697 5.44732 11.8213 5.5 11.6666 5.5C11.5119 5.5 11.3635 5.44732 11.2542 5.35355C11.1448 5.25979 11.0833 5.13261 11.0833 5V3.205Z" fill="#B4B4B4"/>
</svg>
