<svg width="14" height="12" viewBox="0 0 14 12" fill="none" xmlns="http://www.w3.org/2000/svg">
<path d="M13.061 3.06321C12.435 2.12086 11.586 1.37481 10.5136 0.824873C9.44098 0.274911 8.27005 0 6.99994 0C5.72998 0 4.55867 0.274995 3.48632 0.824873C2.41381 1.37478 1.56477 2.12086 0.938811 3.06321C0.312948 4.00552 0 5.03454 0 6.15023C0 7.49042 0.445016 8.69556 1.33527 9.76595C2.22543 10.8364 3.37539 11.5771 4.78504 11.9882C4.94913 12.015 5.0706 11.9961 5.14958 11.9322C5.22859 11.8682 5.26804 11.788 5.26804 11.6921C5.26804 11.676 5.26648 11.532 5.26345 11.2596C5.26032 10.9873 5.25885 10.7497 5.25885 10.547L5.04921 10.5789C4.91554 10.6004 4.74692 10.6095 4.54335 10.6069C4.33986 10.6044 4.12862 10.5857 3.90992 10.5508C3.69111 10.5163 3.4876 10.4362 3.29922 10.3108C3.11093 10.1853 2.97727 10.0211 2.89825 9.81834L2.80711 9.63406C2.74636 9.51137 2.65072 9.37508 2.52005 9.22569C2.38939 9.07616 2.25726 8.97479 2.12359 8.92141L2.05978 8.88127C2.01726 8.8546 1.9778 8.82242 1.94131 8.78509C1.90485 8.74776 1.87756 8.7104 1.85933 8.67298C1.84107 8.63553 1.8562 8.60482 1.90489 8.58072C1.95357 8.55663 2.04155 8.54493 2.16921 8.54493L2.35143 8.56886C2.47297 8.59026 2.6233 8.65419 2.80261 8.76102C2.98183 8.86778 3.12916 9.00657 3.24463 9.17733C3.38445 9.39628 3.55291 9.56312 3.75049 9.67793C3.94791 9.79273 4.14695 9.85004 4.34743 9.85004C4.54791 9.85004 4.72106 9.83669 4.86696 9.81012C5.01269 9.78342 5.14942 9.74328 5.27708 9.68993C5.33176 9.33208 5.48066 9.05717 5.72363 8.865C5.37732 8.83303 5.06597 8.78487 4.78941 8.72083C4.51302 8.65671 4.2274 8.55265 3.93274 8.40836C3.63793 8.26427 3.39336 8.08535 3.19898 7.87189C3.00456 7.65832 2.84501 7.37794 2.72054 7.031C2.596 6.68392 2.53372 6.28354 2.53372 5.82976C2.53372 5.18365 2.77378 4.63382 3.25382 4.17999C3.02895 3.69423 3.05018 3.14968 3.31757 2.5464C3.49379 2.49829 3.75512 2.53439 4.10143 2.65447C4.4478 2.77461 4.7014 2.87752 4.86249 2.96285C5.02357 3.04814 5.15264 3.12043 5.24988 3.17905C5.81509 3.04029 6.39837 2.9709 6.99987 2.9709C7.60138 2.9709 8.18478 3.04029 8.75002 3.17905L9.09636 2.98694C9.33321 2.85875 9.61289 2.74128 9.93474 2.6345C10.2568 2.52777 10.503 2.49838 10.6733 2.54648C10.9466 3.14979 10.971 3.69431 10.746 4.18007C11.226 4.63391 11.4662 5.18387 11.4662 5.82985C11.4662 6.28363 11.4037 6.68527 11.2793 7.03501C11.1548 7.38481 10.9939 7.66492 10.7965 7.8759C10.5989 8.08686 10.3527 8.26438 10.0581 8.40845C9.76334 8.55262 9.47763 8.65668 9.20123 8.7208C8.92471 8.78492 8.61336 8.83311 8.26705 8.86514C8.5829 9.1053 8.74086 9.48439 8.74086 10.0022V11.6918C8.74086 11.7878 8.77885 11.868 8.85489 11.932C8.93084 11.9959 9.05078 12.0147 9.21486 11.988C10.6247 11.5769 11.7747 10.8362 12.6648 9.76572C13.5548 8.69533 14 7.49019 14 6.15C13.9997 5.03445 13.6866 4.00552 13.061 3.06321Z" fill="#B4B4B4"/>
</svg>
